# xmcd
#
# Track frame offsets:
#	150
#	15986
#	30015
#	46896
#	63335
#	81032
#	96119
#	114738
#	129679
#	144098
#	160287
#	174714
#	190113
#	206915
#
# Disc length: 2968 seconds
# Revision: 0
# Processed by: cddbd v1.5.2PL0 Copyright (c) Steve Scherf et al.
# Submitted via: dBpowerAMP V12.0
#
DISCID=b00b960e
DTITLE=Various Artist - Ilse DeLange
DYEAR=2018
DGENRE=Pop, Rock
TTITLE0=Ilse DeLange - OK
TTITLE1=Ilse DeLange - Heartbeat
TTITLE2=Ilse DeLange - Runaway
TTITLE3=Ilse DeLange - Lay Your Weapons Down
TTITLE4=Ilse DeLange - Right With You
TTITLE5=Ilse DeLange - Half The Love
TTITLE6=Ilse DeLange - Around Again
TTITLE7=Ilse DeLange - Sun and Shadow
TTITLE8=Ilse DeLange - Still
TTITLE9=Ilse DeLange - Violet and Blue
TTITLE10=Calum Scott - You Are The Reason
TTITLE11=Ilse DeLange - OK [Acoustic]
TTITLE12=Ilse DeLange - Runaway [Acoustic]
TTITLE13=Ilse DeLange - Violet and Blue [Acoustic]
EXTD=
EXTT0=
EXTT1=
EXTT2=
EXTT3=
EXTT4=
EXTT5=
EXTT6=
EXTT7=
EXTT8=
EXTT9=
EXTT10=
EXTT11=
EXTT12=
EXTT13=
PLAYORDER=
